<?xml version="1.0" encoding="utf-8"?>
<!-- Generator: Adobe Illustrator 22.0.1, SVG Export Plug-In . SVG Version: 6.00 Build 0)  -->
<svg version="1.1" id="Слой_1" xmlns="http://www.w3.org/2000/svg" xmlns:xlink="http://www.w3.org/1999/xlink" x="0px" y="0px"
	 viewBox="0 0 1920 1080" style="enable-background:new 0 0 1920 1080;" xml:space="preserve">
<style type="text/css">
	.st0{fill:#93C4DE;}
	.st1{fill:transparent;}
	.st2{fill:#F5F0CE;}
	.st3{fill:#BFE4F6;}
	.st4{fill:#5A7F98;}
	.st5{fill:aliceblue;}
	.st6{fill:#204361;}
	.st7{fill:none;}
	.st8{fill:#13324E;}
	.st9{fill:transparent;}
	.st10{fill:#7AB6D0;}
	.st11{fill:#2F5771;}
</style>
<rect class="st0" width="1921" height="1080"/>
<g>
	<circle class="st1" cx="973.7" cy="121.1" r="3.5"/>
	<circle class="st1" cx="1339.1" cy="176.1" r="3.5"/>
	<circle class="st1" cx="1317.2" cy="114.1" r="3.5"/>
	<circle class="st1" cx="850.8" cy="212.1" r="1.5"/>
	<circle class="st1" cx="1196.7" cy="82.6" r="1.5"/>
	<circle class="st1" cx="1221.7" cy="146.6" r="1.5"/>
	<circle class="st1" cx="387.7" cy="88.6" r="1.5"/>
	<circle class="st1" cx="569.7" cy="54.6" r="1.3"/>
	<circle class="st1" cx="153.1" cy="168.1" r="3.5"/>
	<circle class="st1" cx="638.3" cy="40.1" r="3.5"/>
	<circle class="st1" cx="736.2" cy="78.6" r="3.5"/>
	<circle class="st1" cx="300.9" cy="100.9" r="3"/>
	<circle class="st1" cx="195.2" cy="107.1" r="3"/>
	<circle class="st1" cx="706.7" cy="55.9" r="3"/>
	<circle class="st1" cx="912.7" cy="153.4" r="3"/>
	<circle class="st1" cx="103.2" cy="235.4" r="1.5"/>
	<circle class="st1" cx="241.8" cy="171.6" r="1.5"/>
	<circle class="st1" cx="1593.8" cy="205.1" r="1.5"/>
	<circle class="st1" cx="810.9" cy="174.6" r="1.5"/>
	<circle class="st1" cx="1461.4" cy="168.1" r="1.5"/>
	<circle class="st1" cx="1818.3" cy="52.4" r="1.5"/>
	<circle class="st1" cx="1592.3" cy="117.6" r="3.5"/>
	<circle class="st1" cx="104.7" cy="42.6" r="1.5"/>
	<circle class="st1" cx="1722.9" cy="93.1" r="3"/>
	<circle class="st1" cx="1691.4" cy="200.6" r="3"/>
	<circle class="st1" cx="1395.2" cy="127.9" r="3"/>
	<circle class="st1" cx="958.2" cy="38.1" r="3"/>
	<circle class="st1" cx="1121.7" cy="143.6" r="1.5"/>
	<circle class="st1" cx="1397.2" cy="42.1" r="2"/>
	<circle class="st1" cx="897.8" cy="87.6" r="1.3"/>
	<circle class="st1" cx="86.2" cy="155.6" r="1.3"/>
	<circle class="st1" cx="164.7" cy="42.6" r="1.3"/>
	<circle class="st1" cx="262.4" cy="66.6" r="1.3"/>
	<circle class="st1" cx="10.7" cy="155.6" r="1.3"/>
	<circle class="st1" cx="23.7" cy="236.6" r="1.3"/>
	<circle class="st1" cx="57.7" cy="81.6" r="1.3"/>
	<circle class="st1" cx="23.7" cy="102.6" r="1.3"/>
	<circle class="st1" cx="58.7" cy="33.6" r="1.3"/>
	<circle class="st1" cx="21.7" cy="18.6" r="1.3"/>
	<circle class="st1" cx="347.7" cy="255.6" r="1.3"/>
	<circle class="st1" cx="361.7" cy="164.6" r="1.3"/>
	<circle class="st1" cx="468.7" cy="126.6" r="1.3"/>
	<circle class="st1" cx="198.2" cy="228.4" r="1.3"/>
	<circle class="st1" cx="798.5" cy="121.1" r="1.3"/>
	<circle class="st1" cx="1010.7" cy="65.6" r="1.3"/>
	<circle class="st1" cx="346.7" cy="18.6" r="1.3"/>
	<circle class="st1" cx="1195.2" cy="53.6" r="1.3"/>
	<circle class="st1" cx="1284.7" cy="53.6" r="1.3"/>
	<circle class="st1" cx="1084.7" cy="53.6" r="1.3"/>
	<circle class="st1" cx="1136.2" cy="69.1" r="1.3"/>
	<circle class="st1" cx="492.8" cy="43.6" r="1.3"/>
	<circle class="st1" cx="1177.7" cy="229.6" r="1.3"/>
	<circle class="st1" cx="1211.1" cy="220" r="1.3"/>
	<circle class="st1" cx="1868.7" cy="87.6" r="1.3"/>
	<circle class="st1" cx="1877.3" cy="69.1" r="1.3"/>
	<circle class="st1" cx="1439.4" cy="58.9" r="1.3"/>
	<circle class="st1" cx="1354.7" cy="33.6" r="1.3"/>
	<circle class="st1" cx="1282.2" cy="171.6" r="1.3"/>
	<circle class="st1" cx="1533.7" cy="38.6" r="1.3"/>
	<circle class="st1" cx="1661.7" cy="42.6" r="1.3"/>
	<circle class="st1" cx="1856.7" cy="154.6" r="1.3"/>
	<circle class="st1" cx="422.7" cy="127.6" r="1.3"/>
	<circle class="st1" cx="1036.2" cy="67.9" r="1.3"/>
	<circle class="st1" cx="823.9" cy="80.4" r="1.3"/>
	<circle class="st1" cx="395.9" cy="211.1" r="1.3"/>
	<circle class="st1" cx="467.4" cy="65.6" r="1.3"/>
	<circle class="st1" cx="1816.8" cy="205.1" r="1.3"/>
	<circle class="st1" cx="673.7" cy="66.6" r="1.3"/>
	<circle class="st1" cx="883.7" cy="34.6" r="1.3"/>
	<circle class="st1" cx="808.4" cy="216.2" r="1.3"/>
	<circle class="st1" cx="85" cy="279.8" r="1.3"/>
	<circle class="st1" cx="323.4" cy="187.3" r="1.3"/>
</g>
<g>
	

	<g>
		<circle class="st2" cx="944" cy="160" r="127"/>
	</g>
</g>
<path class="st3" d="M693.2,190l15.6-7.9c8-3.2,16-6.5,23.9-9.7c10.8-0.9,21.6-1.8,32.3-2.6c16.4,1.8,32.7,3.5,49.1,5.3
	c10.4-1.5,20.8-2.9,31.1-4.4c6.4-2.4,12.8-4.7,19.2-7.1c9.6-1.2,19.2-2.4,28.7-3.5c9.2,1.2,18.4,2.4,27.5,3.5l16.8,7.1
	c16,1.2,31.9,2.4,47.9,3.5c9.7,0.3,16.8,2,21.6,3.5c6.3,2,10.4,4.3,25.1,12.4H686h7.2V190z"/>
<path class="st3" d="M927.2,102l11.3-5c5.8-2,11.6-4.1,17.4-6.1c7.8-0.6,15.6-1.1,23.4-1.7c11.9,1.1,23.7,2.2,35.6,3.4
	c7.5-0.9,15.1-1.9,22.6-2.8c4.6-1.5,9.3-3,13.9-4.5c6.9-0.7,13.9-1.5,20.8-2.2c6.7,0.7,13.3,1.5,20,2.2l12.2,4.5
	c11.6,0.7,23.2,1.5,34.7,2.2c7,0.2,12.2,1.3,15.6,2.2c4.5,1.3,7.5,2.7,18.2,7.8H922H927.2z"/>
<path class="st3" d="M21.8,184.9l8.5-3.8c4.4-1.5,8.7-3.1,13.1-4.6c5.9-0.4,11.8-0.8,17.7-1.3c9,0.8,17.9,1.7,26.9,2.5
	c5.7-0.7,11.4-1.4,17-2.1c3.5-1.1,7-2.3,10.5-3.4c5.2-0.6,10.5-1.1,15.7-1.7c5,0.6,10.1,1.1,15.1,1.7l9.2,3.4
	c8.7,0.6,17.5,1.1,26.2,1.7c5.3,0.1,9.2,1,11.8,1.7c3.4,1,5.7,2.1,13.8,5.9H17.9L21.8,184.9L21.8,184.9z"/>
<path class="st3" d="M1498,117.8l8.5-3.8c4.4-1.5,8.7-3.1,13.1-4.6c5.9-0.4,11.8-0.8,17.7-1.3c9,0.8,17.9,1.7,26.9,2.5
	c5.7-0.7,11.4-1.4,17-2.1c3.5-1.1,7-2.3,10.5-3.4c5.2-0.6,10.5-1.1,15.7-1.7c5,0.6,10.1,1.1,15.1,1.7l9.2,3.4
	c8.7,0.6,17.5,1.1,26.2,1.7c5.3,0.1,9.2,1,11.8,1.7c3.4,1,5.7,2.1,13.8,5.9h-189.4L1498,117.8L1498,117.8z"/>
<path class="st3" d="M138,263.3l6.5-2.9c3.4-1.2,6.7-2.4,10.1-3.6c4.5-0.3,9.1-0.6,13.6-1c6.9,0.6,13.8,1.3,20.6,1.9
	c4.4-0.5,8.7-1.1,13.1-1.6c2.7-0.9,5.4-1.7,8.1-2.6c4-0.4,8.1-0.9,12.1-1.3c3.9,0.4,7.7,0.9,11.6,1.3l7,2.6
	c6.7,0.4,13.4,0.9,20.1,1.3c4.1,0.1,7,0.7,9.1,1.3c2.6,0.7,4.4,1.6,10.6,4.5H135h3V263.3z"/>
<path class="st3" d="M1317.1,180l6.8-3c3.5-1.2,6.9-2.5,10.4-3.7c4.7-0.3,9.3-0.7,14-1c7.1,0.7,14.2,1.3,21.3,2
	c4.5-0.6,9-1.1,13.5-1.7c2.8-0.9,5.5-1.8,8.3-2.7c4.2-0.4,8.3-0.9,12.5-1.3c4,0.4,8,0.9,11.9,1.3l7.3,2.7c6.9,0.4,13.9,0.9,20.8,1.3
	c4.2,0.1,7.3,0.8,9.3,1.3c2.7,0.8,4.5,1.6,10.9,4.7H1314L1317.1,180L1317.1,180z"/>
<path class="st3" d="M1406.5,272l9.7-4.3c5-1.8,9.9-3.5,14.9-5.3c6.7-0.5,13.4-1,20.1-1.4c10.2,1,20.3,1.9,30.5,2.9
	c6.4-0.8,12.9-1.6,19.3-2.4c4-1.3,7.9-2.6,11.9-3.8c6-0.6,11.9-1.3,17.9-1.9c5.7,0.6,11.4,1.3,17.1,1.9l10.4,3.8
	c9.9,0.6,19.8,1.3,29.8,1.9c6,0.2,10.4,1.1,13.4,1.9c3.9,1.1,6.5,2.4,15.6,6.7h-215L1406.5,272L1406.5,272z"/>
<path class="st3" d="M1006.2,200l11.3-5c5.8-2,11.6-4.1,17.4-6.1c7.8-0.6,15.6-1.1,23.4-1.7c11.9,1.1,23.7,2.2,35.6,3.4
	c7.5-0.9,15.1-1.9,22.6-2.8c4.6-1.5,9.3-3,13.9-4.5c6.9-0.7,13.9-1.5,20.8-2.2c6.7,0.7,13.3,1.5,20,2.2l12.2,4.5
	c11.6,0.7,23.2,1.5,34.7,2.2c7,0.2,12.2,1.3,15.6,2.2c4.5,1.3,7.5,2.7,18.2,7.8h-251L1006.2,200L1006.2,200z"/>
<polygon class="st4" points="0,334 297,233 446,278 699,233 811,273 1025,125 1195,243 1403,201 1580,303 1738.3,243 1920,301 
	1921,264 1921.2,676.8 -0.5,676.8 "/>
<g>
	<g>
		

		<g>
			<path class="st5" d="M1028.8,322.9h-15.6c-2.5,0-4.5-2-4.5-4.5v-24.7c0-2.5,2-4.5,4.5-4.5h15.6c2.5,0,4.5,2,4.5,4.5v24.7
				C1033.1,320.9,1031.1,322.9,1028.8,322.9z"/>
		</g>
	</g>
	<rect x="988.1" y="320.4" class="st6" width="65.7" height="3.4"/>
	<g>
		<rect x="996.5" y="280.3" class="st7" width="48.8" height="43.6"/>
		<path class="st8" d="M1049.1,280.3h6.5l-34.7-15.1l-34.6,15.1h6.4v43.6h-4.6v3.4v3.4h15.1v134.4h35.3V330.6h15.3v-3.4v-3.4h-4.7
			L1049.1,280.3L1049.1,280.3z M996.5,280.3h48.8v43.6h-48.8L996.5,280.3L996.5,280.3z"/>
	</g>
	<polygon class="st6" points="1038.6,438.1 1038.6,476.9 1003.3,476.9 1003.3,454.9 	"/>
	<polygon class="st6" points="1038.6,358.4 1038.6,399 1003.3,415.8 1003.3,375.1 	"/>
	<rect x="988.1" y="327.1" class="st6" width="65.7" height="3.4"/>
</g>
<path class="st9" d="M1010,303c-76.7,58.1-153.4,116.3-230.2,174.4L850,499C903.3,433.7,956.7,368.3,1010,303z"/>
<polygon class="st10" points="1027,147 1069.2,170.8 1092.9,209.2 1114.8,206.6 1145.4,235.1 1177.2,248.4 1121.6,255.1 
	1090.7,240.7 1072,244.9 1062.3,205.8 1032,196 1021,175 "/>
<path class="st11" d="M1894.3,483.8c-3.3-1.9-6.7-3.7-10-5.6c3.9,0,7.7,0,11.6,0c-4.1-2.7-8.1-5.5-12.2-8.2c3.2,0,6.5,0,9.7,0
	c-3.6-2.1-7.2-4.3-10.7-6.4c2.3,0,4.7,0,7,0l-8.7-7.6h7l-12-12.5l-12,12.5h7l-8.7,7.6c2.3,0,4.7,0,7,0c-3.6,2.1-7.2,4.3-10.7,6.4
	c3.2,0,6.5,0,9.7,0c-4.1,2.7-8.1,5.5-12.2,8.2c3.9,0,7.7,0,11.6,0c-4.7,2.6-9.4,5.2-14,7.8c4.6,0,9.3,0,13.9,0
	c-5.9,2.8-11.8,5.6-17.6,8.4h17.8L1737,547l-77.3-19.7v-1h23.3c-5.9-3.5-11.8-6.9-17.6-10.4c4.6,0,9.3,0,13.9,0
	c-4.7-3.2-9.4-6.5-14-9.7c3.9,0,7.7,0,11.6,0c-4.1-3.4-8.1-6.8-12.2-10.2c3.2,0,6.5,0,9.7,0c-3.6-2.7-7.2-5.3-10.7-8
	c2.3,0,4.7,0,7,0l-8.7-9.4h7l-12-15.6l-12,15.6h7l-8.7,9.4c2.3,0,4.7,0,7,0c-3.6,2.7-7.2,5.3-10.7,8c3.2,0,6.5,0,9.7,0
	c-4.1,3.4-8.1,6.8-12.2,10.2c3.9,0,7.7,0,11.6,0c-4.7,3.2-9.4,6.5-14,9.7c4.6,0,9.3,0,13.9,0c-3.4,2-6.8,4-10.2,6L1521,492
	l-194.5,46.6c-1.5-0.7-2.9-1.4-4.4-2.1c3.4,0,6.8,0,10.2,0c-3.4-1.9-6.8-3.8-10.3-5.7c2.8,0,5.6,0,8.4,0c-3-2-5.9-4-8.9-6
	c2.4,0,4.7,0,7.1,0c-2.6-1.6-5.2-3.1-7.8-4.7c1.7,0,3.4,0,5.1,0l-6.3-5.5h5.1l-8.7-9.2l-8.7,9.2h5.1l-6.3,5.5c1.7,0,3.4,0,5.1,0
	c-2.6,1.6-5.2,3.1-7.8,4.7c2.4,0,4.7,0,7.1,0c-3,2-5.9,4-8.9,6c2.8,0,5.6,0,8.4,0c-3.4,1.9-6.8,3.8-10.3,5.7c3.4,0,6.8,0,10.2,0
	c-2.8,1.3-5.5,2.6-8.3,3.9c-27.4-11.1-54.7-22.2-82.1-33.3h5.4c-5.9-3.6-11.8-7.1-17.6-10.7c4.6,0,9.3,0,13.9,0
	c-4.7-3.3-9.4-6.7-14-10c3.9,0,7.7,0,11.6,0c-4.1-3.5-8.1-7-12.2-10.5c3.2,0,6.5,0,9.7,0c-3.6-2.7-7.2-5.5-10.7-8.2c2.3,0,4.7,0,7,0
	l-8.7-9.7h7l-12-16l-12,16h7l-8.7,9.7c2.3,0,4.7,0,7,0c-3.6,2.7-7.2,5.5-10.7,8.2c3.2,0,6.5,0,9.7,0c-4.1,3.5-8.1,7-12.2,10.5
	c3.9,0,7.7,0,11.6,0c-2.7,1.9-5.4,3.8-8,5.7c-36.2-14.7-72.4-29.4-108.7-44.1c-70.3,18.3-140.7,36.7-211,55l-166-51l-33.4,9.6
	c-3.3-2.2-6.5-4.4-9.9-6.6c3.2,0,6.5,0,9.7,0c-3.6-2.1-7.2-4.3-10.7-6.4c2.3,0,4.7,0,7,0L651,441h7l-12-12.5L634,441h7l-8.7,7.6
	c2.3,0,4.7,0,7,0c-3.6,2.1-7.2,4.3-10.7,6.4c3.2,0,6.5,0,9.7,0c-4.1,2.7-8.1,5.5-12.2,8.2c3.9,0,7.7,0,11.6,0
	c-4.7,2.6-9.4,5.2-14,7.8c2.4,0,4.8,0,7.3,0l-80,23l-177-61l-67.5,29.6c-3.4-2.7-6.8-5.4-10.2-8.2c3.9,0,7.7,0,11.6,0
	c-4.1-3.9-8.1-7.8-12.2-11.7c3.2,0,6.5,0,9.7,0c-3.6-3-7.2-6.1-10.7-9.1c2.3,0,4.7,0,7,0l-8.7-10.8h7L288,405l-12,17.8h7l-8.7,10.8
	c2.3,0,4.7,0,7,0c-3.6,3-7.2,6.1-10.7,9.1c3.2,0,6.5,0,9.7,0c-4.1,3.9-8.1,7.8-12.2,11.7c3.9,0,7.7,0,11.6,0
	c-4.7,3.7-9.4,7.4-14,11.2c4.6,0,9.3,0,13.9,0c-5.9,4-11.8,7.9-17.6,11.9h10.5L212,504L68.2,551.5c-2-1.1-3.9-2.2-5.9-3.3
	c3.9,0,7.7,0,11.6,0c-4.1-2.7-8.1-5.5-12.2-8.2c3.2,0,6.5,0,9.7,0c-3.6-2.1-7.2-4.3-10.7-6.4c2.3,0,4.7,0,7,0L59,526h7l-12-12.5
	L42,526h7l-8.7,7.6c2.3,0,4.7,0,7,0c-3.6,2.1-7.2,4.3-10.7,6.4c3.2,0,6.5,0,9.7,0c-4.1,2.7-8.1,5.5-12.2,8.2c3.9,0,7.7,0,11.6,0
	c-4.7,2.6-9.4,5.2-14,7.8c4.6,0,9.3,0,13.9,0c-5.9,2.8-11.8,5.6-17.6,8.4h1.1L0,574c-0.2,106.2-0.3,212.3-0.5,318.5l1921.5-5.4V473
	L1894.3,483.8z M296.4,465.6c1.1,0,2.1,0,3.2,0l-2,0.9C297.2,466.2,296.8,465.9,296.4,465.6z M654.3,463.2c1.3,0,2.5,0,3.8,0
	l-2.5,0.7C655.2,463.7,654.7,463.4,654.3,463.2z M1307,542.6h2.7l-1.7,0.4C1307.7,542.9,1307.3,542.7,1307,542.6z M1884.4,486
	c1.4,0,2.8,0,4.3,0l-2.3,0.9C1885.7,486.6,1885,486.3,1884.4,486z"/>
<path class="st8" d="M1665.8,631.1c-2.2-0.3-3.7,0.8-4.1,1.1V601h5.4v-1.7h-5.4v-2.7h5.4v-1.7h-5.4h-1.6h-4.3
	c-2.1-1.6-4.4-3.6-6.6-6c-0.6-0.7-3-3.3-5.5-7.5c-1.6-2.6-2.5-4.7-3.5-6.7c-1.9-4.1-2-5.3-4.2-10.3c-0.5-1.1-0.9-2-1.2-2.8h4.5v-1.7
	h-5.3c-0.1-0.1-0.1-0.2-0.1-0.3v-2.5h5.4v-1.7h-5.4h-1.6h-1.7c-1.9-1.8-4.1-3.1-6.8-5.3c-4.9-3.9-8-7.6-9.6-9.5
	c-0.9-1.1-4.9-5.9-8.6-13.3c-2.9-5.8-2.4-6.6-3.8-9.4h5.2v-1.7h-5.4v-2.7h5.4v-1.7h-5.4h-1.6h-2.7c-1.6-1.8-4.1-4.4-7.8-8.2
	c-6-6-5.6-5.4-6.8-6.7c-5.9-6.8-6.1-13.4-8.5-19.3h5v-1.7h-5.4v-2.7h5.4v-1.7h-5.4h-1.6h-1.4c-3.9-0.9-8-2-12.4-3.4
	c-4.9-1.5-9.4-3.2-13.5-4.9c0.1,0.1,0.4,0.4,0.5,0.9s-0.1,0.8-0.2,0.9c6.9,2.8,10.2,3.7,11.9,4.1c0.8,0.2,2.4,0.4,4.4,1.1
	c0.8,0.3,1.7,0.6,2.5,0.9c1.5,0.5,1.9,0.7,2.5,0.7c1.4,0.1,2.6-0.2,2.6-0.4c0-0.1-0.5-0.2-2.7-0.1c0.1,0.6,0.2,1.2,0.4,1.8h3.4
	c0.6,1,1.1,1.9,1.6,2.7h-5v1.7h5.4v31.2c-0.2-0.2-1.6-1.5-3.6-1.4c-2.7,0.1-4.1,2.4-4.2,2.6c0.2,0.2,0.4,0.5,0.6,0.7
	c0.8-1.4,2.2-2.3,3.8-2.3c2.1,0,3.3,1.5,3.4,1.7c0.5,0,1.1,0,1.6,0c0.2-0.2,1.7-1.6,4-1.4s3.5,2,3.6,2.2c0.2-0.3,0.4-0.6,0.6-0.8
	c-0.2-0.3-1.6-2.1-4-2.4c-2.2-0.3-3.7,0.8-4.1,1.1V480c2.9,7.1,2.3,11.1,7.9,17.4c3.3,3.7,6.9,6.2,14,14.2h-1.1v1.7h2.7
	c0.7,0.7,1.5,1.6,2.3,2.7h-4.9v1.7h5.4V549c-0.2-0.2-1.6-1.5-3.6-1.4c-2.7,0.1-4.1,2.4-4.2,2.6c0.2,0.2,0.4,0.5,0.6,0.7
	c0.8-1.4,2.2-2.3,3.8-2.3c2.1,0,3.3,1.5,3.4,1.7c0.5,0,1.1,0,1.6,0c0.2-0.2,1.7-1.6,4-1.4c2.3,0.2,3.5,2,3.6,2.2
	c0.2-0.3,0.4-0.6,0.6-0.8c-0.2-0.3-1.6-2.1-4-2.4c-2.2-0.3-3.7,0.8-4.1,1.1v-29.3c1.1,2.2,1.5,4,1.7,4.7c2,6.9,8.1,16.1,13.9,22
	c5.3,5.4,9,6.6,11.9,9h-2.2v1.7h3.9c0.5,0.6,1,1.3,1.5,2.1v0.6h-5.4v1.7h5.4v31.2c-0.2-0.2-1.6-1.5-3.6-1.4
	c-2.7,0.1-4.1,2.4-4.2,2.6c0.2,0.2,0.4,0.5,0.6,0.7c0.8-1.4,2.2-2.3,3.8-2.3c2.1,0,3.3,1.5,3.4,1.7c0.5,0,1.1,0,1.6,0
	c0.2-0.2,1.7-1.6,4-1.4c2.3,0.2,3.5,2,3.6,2.2c0.2-0.3,0.4-0.6,0.6-0.8c-0.2-0.3-1.6-2.1-4-2.4c-2.2-0.3-3.7,0.8-4.1,1.1v-30.3
	c1.2,2.5,2.8,6.1,3.6,8.4c0.8,2.4,1.2,3.9,2.4,6.4c1,2.1,2,3.8,2.7,4.9c1.3,2.1,3,4.3,5,6.6c2.4,2.7,4.9,4.9,7.2,6.7v1.2h1.6
	c1.3,1,2.6,1.8,3.8,2.5v0.2h-5.4v1.7h5.4v31.2c-0.2-0.2-1.6-1.5-3.6-1.4c-2.7,0.1-4.1,2.4-4.2,2.6c0.2,0.2,0.4,0.5,0.6,0.7
	c0.8-1.4,2.2-2.3,3.8-2.3c2.1,0,3.3,1.5,3.4,1.7c0.5,0,1.1,0,1.6,0c0.2-0.2,1.7-1.6,4-1.4c2.3,0.2,3.5,2,3.6,2.2
	c0.2-0.3,0.4-0.6,0.6-0.8C1669.7,633.2,1668.3,631.4,1665.8,631.1z M1571.9,472.9v0.5c-0.1-0.2-0.2-0.3-0.3-0.5H1571.9z
	 M1599.8,513.4v1.5c-0.3-0.4-0.7-0.9-1.2-1.5H1599.8z M1632.1,557.1L1632.1,557.1L1632.1,557.1L1632.1,557.1z M1658.2,596.6h1.9v1.2
	C1659.5,597.4,1658.8,597,1658.2,596.6z"/>
<polygon class="st10" points="1394,212 1426,223 1443,248 1480,248 1507,279 1528,286 1491,300 1472,276 1444,270 1389,236 "/>
<polygon class="st10" points="300,237 337,255 348,271 370,264 393,283 366,290 341,290 314,273 "/>
<g>
	<polygon class="st8" points="1547.9,458.3 1563,458.3 1541,447.7 1519,437.1 1507.1,442.8 1507.1,433.2 1499.4,433.2 1499.4,446.5 
		1497,447.7 1475,458.3 1490,458.3 1490,498.3 1480.7,498.3 1480.7,501.2 1557.3,501.2 1557.3,498.3 1547.9,498.3 	"/>
	<rect x="1490" y="458.5" class="st6" width="57.9" height="38.9"/>
	<g>
		<g>
			

			<g>
				<g>
					<path class="st5" d="M1539.1,487.9h-39.8c-1.4,0-2.6-1.2-2.6-2.6v-12.8c0-1.4,1.2-2.6,2.6-2.6h39.8c1.4,0,2.6,1.2,2.6,2.6v12.8
						C1541.7,486.7,1540.6,487.9,1539.1,487.9z"/>
				</g>
			</g>
		</g>
	</g>
	<polygon class="st8" points="1541.7,478 1519.8,478 1519.8,469.8 1518.2,469.8 1518.2,478 1496.7,478 1496.7,479.6 1518.2,479.6 
		1518.2,488 1519.8,488 1519.8,479.6 1541.7,479.6 	"/>
</g>
<path class="st6" d="M1921,681.4c-0.2-0.1-0.3-0.2-0.5-0.3v-31.4l-16.9,4.4c-6.9-4.5-13.8-9.1-20.6-13.6c8.2,0,16.4,0,24.7,0
	c-8.7-6.9-17.3-13.9-26-20.8c6.9,0,13.8,0,20.7,0c-7.6-5.4-15.3-10.8-22.9-16.2c5,0,10,0,15,0l-18.5-19.2h15l-25.5-31.7l-25.5,31.7
	h15l-18.5,19.2c5,0,10,0,15,0c-7.6,5.4-15.3,10.8-22.9,16.2c6.9,0,13.8,0,20.7,0c-8.7,6.9-17.3,13.9-26,20.8c8.2,0,16.4,0,24.7,0
	c-10,6.6-20,13.2-30,19.8c9.9,0,19.8,0,29.7,0c-9.5,5.3-18.9,10.6-28.3,15.8l-28.9,7.6l-19.3-8c2.4,0,4.8,0,7.2,0
	c-8.3-5.9-16.6-11.8-24.8-17.7c6.8,0,13.6,0,20.4,0c-7.2-6.2-14.4-12.4-21.5-18.6c5.7,0,11.4,0,17.2,0c-6.3-4.8-12.7-9.6-19-14.5
	c4.1,0,8.3,0,12.4,0l-15.3-17.1h12.4l-21.2-28.3l-21.2,28.3h12.4l-15.3,17.1c4.1,0,8.3,0,12.4,0c-6.3,4.8-12.7,9.6-19,14.5
	c5.7,0,11.4,0,17.2,0c-4.5,3.9-9,7.8-13.5,11.7l-38.5-16l-11.6-2c-6.9-3.9-13.8-7.8-20.7-11.6c6.5,0,13,0,19.6,0
	c-6.6-4.3-13.1-8.7-19.7-13c5.4,0,10.8,0,16.2,0c-5.7-4.6-11.4-9.1-17.1-13.7c4.5,0,9.1,0,13.6,0c-5-3.5-10-7.1-15.1-10.6
	c3.3,0,6.6,0,9.8,0l-12.2-12.6h9.8l-16.8-20.9l-16.8,20.9h9.8l-12.2,12.6c3.3,0,6.6,0,9.8,0c-5,3.5-10,7.1-15.1,10.6
	c4.5,0,9.1,0,13.6,0c-5.7,4.6-11.4,9.1-17.1,13.7c5.4,0,10.8,0,16.2,0c-6.6,4.3-13.1,8.7-19.7,13c6.5,0,13,0,19.6,0
	c-1.8,1-3.6,2-5.3,3l-11.6-2l-81,10.7l-7.4,3.2c-2.8-2.2-5.6-4.5-8.4-6.7c6.9,0,13.8,0,20.7,0c-7.6-5.4-15.3-10.8-22.9-16.2
	c5,0,10,0,15,0l-18.5-19.2h15l-25.5-31.7l-25.5,31.7h15l-18.5,19.2c5,0,10,0,15,0c-7.6,5.4-15.3,10.8-22.9,16.2c6.9,0,13.8,0,20.7,0
	c-8.7,6.9-17.3,13.9-26,20.8c8.2,0,16.4,0,24.7,0c-6.7,4.4-13.4,8.8-20.1,13.2l-44.7,19.6c-6.1-4.9-12.1-9.7-18.2-14.6
	c6.1,0,12.3,0,18.4,0c-6.8-4.8-13.6-9.6-20.4-14.4c4.4,0,8.9,0,13.3,0l-16.5-17.1h13.3l-22.7-28.2l-22.7,28.2h13.3l-16.5,17.1
	c4.4,0,8.9,0,13.3,0c-6.8,4.8-13.6,9.6-20.4,14.4c6.1,0,12.3,0,18.4,0c-6.4,5.2-12.9,10.3-19.3,15.4l-60.6-13.8h20.1
	c-12.6-7-25.1-14.1-37.7-21.1c9.9,0,19.8,0,29.7,0c-10-6.6-20-13.2-30-19.8c8.2,0,16.4,0,24.7,0c-8.7-6.9-17.3-13.9-26-20.8
	c6.9,0,13.8,0,20.7,0c-7.6-5.4-15.3-10.8-22.9-16.2c5,0,10,0,15,0l-18.5-19.2h15l-25.5-31.7l-25.5,31.7h15l-18.5,19.2c5,0,10,0,15,0
	c-7.6,5.4-15.3,10.8-22.9,16.2c6.9,0,13.8,0,20.7,0c-8.7,6.9-17.3,13.9-26,20.8c8.2,0,16.4,0,24.7,0c-10,6.6-20,13.2-30,19.8
	c9.9,0,19.8,0,29.7,0c-3.8,2.1-7.6,4.2-11.3,6.3l-71.5-16.3c9.4,0,18.8,0,28.2,0c-10-6.6-20-13.2-30-19.8c8.2,0,16.4,0,24.7,0
	c-8.7-6.9-17.3-13.9-26-20.8c6.9,0,13.8,0,20.7,0c-7.6-5.4-15.3-10.8-22.9-16.2c5,0,10,0,15,0l-18.5-19.2h15l-25.5-31.7l-25.5,31.7
	h15l-18.5,19.2c5,0,10,0,15,0c-7.6,5.4-15.3,10.8-22.9,16.2c6.9,0,13.8,0,20.7,0c-8.7,6.9-17.3,13.9-26,20.8c8.2,0,16.4,0,24.7,0
	c-10,6.6-20,13.2-30,19.8c9.9,0,19.8,0,29.7,0c-12.6,7-25.1,14.1-37.7,21.1h9.2l-44.2,14.7c-2.8-1.8-5.6-3.7-8.3-5.5
	c7.7,0,15.5,0,23.2,0c-8.1-6.5-16.3-13-24.4-19.6c6.5,0,13,0,19.5,0c-7.2-5.1-14.4-10.1-21.5-15.2c4.7,0,9.4,0,14.1,0l-17.4-18h14.1
	l-24-29.8l-24,29.8h14.1l-17.4,18c4.7,0,9.4,0,14.1,0c-7.2,5.1-14.4,10.1-21.5,15.2c6.5,0,13,0,19.5,0c-8.1,6.5-16.3,13-24.4,19.6
	c7.7,0,15.5,0,23.2,0c-9.4,6.2-18.8,12.4-28.2,18.6c9.3,0,18.6,0,27.9,0c-1,0.6-2,1.1-3,1.7l-28,9.3l-30.6-6.1
	c-7.6-3.6-15.2-7.2-22.8-10.8c9.2,0,18.4,0,27.6,0c-9.3-5.2-18.5-10.4-27.8-15.5c7.6,0,15.3,0,22.9,0c-8-5.4-16.1-10.9-24.1-16.3
	c6.4,0,12.8,0,19.2,0c-7.1-4.2-14.2-8.5-21.3-12.7c4.6,0,9.3,0,13.9,0l-17.2-15h13.9L889.5,598l-23.7,24.8h13.9l-17.2,15
	c4.6,0,9.3,0,13.9,0c-7.1,4.2-14.2,8.5-21.3,12.7c6.4,0,12.8,0,19.2,0c-8,5.4-16.1,10.9-24.1,16.3c7.6,0,15.3,0,22.9,0
	c-6.8,3.8-13.5,7.6-20.3,11.3l-81.2-16h33.7c-11.8-6.6-23.6-13.2-35.4-19.9c9.3,0,18.6,0,27.9,0c-9.4-6.2-18.8-12.4-28.2-18.6
	c7.7,0,15.5,0,23.2,0c-8.1-6.5-16.3-13-24.4-19.6c6.5,0,13,0,19.5,0c-7.2-5.1-14.4-10.1-21.5-15.2c4.7,0,9.4,0,14.1,0l-17.4-18h14.1
	l-24-29.8l-24,29.8h14.1l-17.4,18c4.7,0,9.4,0,14.1,0c-7.2,5.1-14.4,10.1-21.5,15.2c6.5,0,13,0,19.5,0c-8.1,6.5-16.3,13-24.4,19.6
	c7.7,0,15.5,0,23.2,0c-9.4,6.2-18.8,12.4-28.2,18.6c9.3,0,18.6,0,27.9,0c-9.2,5.1-18.4,10.3-27.6,15.5l-12.9,4.5
	c-5.8-3.9-11.5-7.8-17.3-11.7c6.4,0,12.8,0,19.2,0c-7.1-4.2-14.2-8.5-21.3-12.7c4.6,0,9.3,0,13.9,0l-17.2-15h13.9L663.5,598
	l-23.7,24.8h13.9l-17.2,15c4.6,0,9.3,0,13.9,0c-7.1,4.2-14.2,8.5-21.3,12.7c6.4,0,12.8,0,19.2,0c-8,5.4-16.1,10.9-24.1,16.3
	c7.6,0,15.3,0,22.9,0c-9.3,5.2-18.5,10.4-27.8,15.5c6.3,0,12.7,0,19,0l-31.8,11.1l-80.8-26.6h45.4c-13.1-6.2-26.3-12.4-39.4-18.7
	c10.4,0,20.7,0,31.1,0c-10.4-5.8-20.9-11.7-31.3-17.5c8.6,0,17.2,0,25.8,0c-9.1-6.1-18.1-12.3-27.2-18.4c7.2,0,14.4,0,21.7,0
	c-8-4.8-16-9.5-24-14.3c5.2,0,10.4,0,15.7,0L524.1,581h15.7l-26.7-28l-26.7,28H502l-19.4,16.9c5.2,0,10.4,0,15.7,0
	c-8,4.8-16,9.5-24,14.3c7.2,0,14.4,0,21.7,0c-9.1,6.1-18.1,12.3-27.2,18.4c8.6,0,17.2,0,25.8,0c-10.4,5.8-20.9,11.7-31.3,17.5
	c10.4,0,20.7,0,31.1,0c-3.5,1.7-7,3.3-10.5,5l-1.4-0.5l-73.1,18.7c-3.1-2.1-6.1-4.2-9.2-6.3c7.7,0,15.4,0,23.1,0
	c-8.5-5.1-17.1-10.1-25.6-15.2c5.6,0,11.2,0,16.7,0l-20.7-18h16.7L382,602l-28.5,29.8h16.7l-20.7,18c5.6,0,11.2,0,16.7,0
	c-8.5,5.1-17.1,10.1-25.6,15.2c7.7,0,15.4,0,23.1,0c-9.7,6.5-19.4,13-29,19.6c7.5,0,14.9,0,22.4,0l-31.4,8
	c-9.2-6.2-18.4-12.3-27.5-18.6c7.7,0,15.4,0,23.1,0c-8.5-5.1-17.1-10.1-25.6-15.2c5.6,0,11.2,0,16.7,0l-20.7-18h16.7L280,611
	l-28.5,29.8h16.7l-20.7,18c5.6,0,11.2,0,16.7,0c-8.5,5.1-17.1,10.1-25.6,15.2c7.7,0,15.4,0,23.1,0c-6.2,4.1-12.4,8.3-18.5,12.5
	L198,670.9c-1.6-0.9-3.1-1.8-4.7-2.6c9.9,0,19.8,0,29.7,0c-10-6.6-20-13.2-30-19.8c8.2,0,16.4,0,24.7,0c-8.7-6.9-17.3-13.9-26-20.8
	c6.9,0,13.8,0,20.7,0c-7.6-5.4-15.3-10.8-22.9-16.2c5,0,10,0,15,0L186,592.3h15l-25.5-31.7L150,592.3h15l-18.5,19.2c5,0,10,0,15,0
	c-7.6,5.4-15.3,10.8-22.9,16.2c6.9,0,13.8,0,20.7,0c-8.7,6.9-17.3,13.9-26,20.8c8.2,0,16.4,0,24.7,0c-10,6.6-20,13.2-30,19.8
	c6.4,0,12.9,0,19.3,0l-66.1,34.2c-4.3-3-8.5-6-12.8-9c5,0,10,0,15,0L65,674.3h15l-25.5-31.7L29,674.3h15l-18.5,19.2c5,0,10,0,15,0
	c-7.6,5.4-15.3,10.8-22.9,16.2c6.9,0,13.8,0,20.7,0c-8.7,6.9-17.3,13.9-26,20.8c5,0,10,0,15,0l-27.8,14.4v26.2
	c-0.2,0.1-0.3,0.2-0.5,0.3h0.5V1080h1921V681.4H1921z M321.8,693.6l-15.2,3.9c-2.3-1.3-4.7-2.6-7-3.9
	C307,693.6,314.4,693.6,321.8,693.6z M1396.3,687.3l-4.9,2.2c-1.1-0.7-2.2-1.4-3.3-2.2C1390.8,687.3,1393.5,687.3,1396.3,687.3z
	 M1353.3,689.6l-6-2.3c3.1,0,6.2,0,9.4,0C1355.6,688.1,1354.4,688.8,1353.3,689.6z M679.9,666.8c1,0,1.9,0,2.9,0l-1.8,0.6
	C680.6,667.2,680.3,667,679.9,666.8z"/>
<path class="st8" d="M1873.5,830.5l-5.9,1.3c-3.2-2.1-6.4-4.2-9.6-6.4c12.1,0,24.3,0,36.4,0c-12.8-10.3-25.6-20.5-38.4-30.8
	c10.2,0,20.4,0,30.6,0c-11.3-8-22.6-15.9-33.8-23.9c7.4,0,14.8,0,22.1,0l-27.3-28.3h22.1l-37.7-46.9l-37.7,46.9h22.1l-27.3,28.3
	c7.4,0,14.8,0,22.1,0c-11.3,8-22.6,15.9-33.8,23.9c10.2,0,20.4,0,30.6,0c-12.8,10.3-25.6,20.5-38.4,30.8c12.1,0,24.3,0,36.4,0
	c-14.6,9.7-29.1,19.2-43.7,28.9l-1.8,0.4l-52.6-12.2c-8.2-4.6-16.4-9.2-24.5-13.8c14.6,0,29.3,0,43.9,0
	c-14.8-9.8-29.5-19.5-44.3-29.3c12.1,0,24.3,0,36.4,0c-12.8-10.3-25.6-20.5-38.4-30.8c10.2,0,20.4,0,30.6,0
	c-11.3-8-22.6-15.9-33.8-23.9c7.4,0,14.8,0,22.1,0l-27.3-28.3h22.1l-37.7-46.9l-37.7,46.9h22.1l-27.3,28.3c7.4,0,14.8,0,22.1,0
	c-11.3,8-22.6,15.9-33.8,23.9c10.2,0,20.4,0,30.6,0c-12.8,10.3-25.6,20.5-38.4,30.8c12.1,0,24.3,0,36.4,0
	c-14.8,9.8-29.5,19.5-44.3,29.3c14.6,0,29.3,0,43.9,0c-18.5,10.4-37.1,20.8-55.6,31.2h57.8l-56.5,17.8
	c-10.7-7.1-21.5-14.2-32.2-21.3c12.1,0,24.3,0,36.4,0c-12.8-10.3-25.6-20.5-38.4-30.8c10.2,0,20.4,0,30.6,0
	c-11.3-8-22.6-15.9-33.8-23.9c7.4,0,14.8,0,22.1,0l-27.3-28.3h22.1l-37.7-46.9l-37.7,46.9h22.1l-27.3,28.3c7.4,0,14.8,0,22.1,0
	c-11.3,8-22.6,15.9-33.8,23.9c10.2,0,20.4,0,30.6,0c-12.8,10.3-25.6,20.5-38.4,30.8c12.1,0,24.3,0,36.4,0c-4.1,2.7-8.1,5.3-12.1,8
	l-33.5-6.3c-10.3-5.8-20.7-11.6-31-17.4c14.6,0,29.3,0,43.9,0c-14.8-9.8-29.5-19.5-44.3-29.3c12.1,0,24.3,0,36.4,0
	c-12.8-10.3-25.6-20.5-38.4-30.8c10.2,0,20.4,0,30.6,0c-11.3-8-22.6-15.9-33.8-23.9c7.4,0,14.8,0,22.1,0l-27.3-28.3h22.1l-37.7-46.9
	l-37.7,46.9h22.1l-27.3,28.3c7.4,0,14.8,0,22.1,0c-11.3,8-22.6,15.9-33.8,23.9c10.2,0,20.4,0,30.6,0c-12.8,10.3-25.6,20.5-38.4,30.8
	c12.1,0,24.3,0,36.4,0c-12.1,8-24.2,16-36.4,24l-26.1-4.9l-0.5,0.1c-11-8.9-22-17.9-32.9-26.8c11.5,0,23,0,34.4,0
	c-12.1-11.9-24.2-23.8-36.3-35.7c9.6,0,19.3,0,28.9,0c-10.7-9.3-21.3-18.5-32-27.8c7,0,13.9,0,20.9,0l-25.8-32.9h20.9l-35.7-54.4
	l-35.7,54.4h20.9l-25.8,32.9c7,0,13.9,0,20.9,0c-10.7,9.3-21.3,18.5-32,27.8c9.6,0,19.3,0,28.9,0c-12.1,11.9-24.2,23.8-36.3,35.7
	c11.5,0,23,0,34.4,0c-13.9,11.3-27.9,22.7-41.8,34c13.8,0,27.7,0,41.5,0c-5.9,4.1-11.8,8.2-17.7,12.2l-63.6,12.3
	c-9-6-18.1-11.9-27.1-17.9c12.1,0,24.3,0,36.4,0c-12.8-10.3-25.6-20.5-38.4-30.8c10.2,0,20.4,0,30.6,0c-11.3-8-22.6-15.9-33.8-23.9
	c7.4,0,14.8,0,22.1,0l-27.3-28.3h22.1l-37.7-46.9l-37.7,46.9h22.1l-27.3,28.3c7.4,0,14.8,0,22.1,0c-11.3,8-22.6,15.9-33.8,23.9
	c10.2,0,20.4,0,30.6,0c-12.8,10.3-25.6,20.5-38.4,30.8c12.1,0,24.3,0,36.4,0c-14.8,9.8-29.5,19.5-44.3,29.3c14.6,0,29.3,0,43.9,0
	c-3.7,2.1-7.3,4.1-11,6.2l-14.1,2.7l-43-18.6l-26.8,6.4c-5.2-4.9-10.5-9.9-15.7-14.8c12.1,0,24.3,0,36.4,0
	c-12.8-14.6-25.6-29.3-38.4-43.9c10.2,0,20.4,0,30.6,0c-11.3-11.4-22.6-22.8-33.8-34.2c7.4,0,14.8,0,22.1,0L935.6,737h22.1L920,670
	l-37.7,67h22.1L877,777.4c7.4,0,14.8,0,22.1,0c-11.3,11.4-22.6,22.8-33.8,34.2c10.2,0,20.4,0,30.6,0c-12.8,14.6-25.6,29.3-38.4,43.9
	c12.1,0,24.3,0,36.4,0c-14.8,13.9-29.5,27.9-44.3,41.8l0,0l-28.1,6.7c-10-7.6-20-15.2-30-22.8c12.2,0,24.5,0,36.7,0
	c-12.3-11.1-24.6-22.1-37-33.2c10.1,0,20.3,0,30.4,0c-10.7-11.6-21.4-23.2-32.1-34.8c8.5,0,17,0,25.6,0c-9.4-9-18.8-18.1-28.3-27.1
	c6.2,0,12.3,0,18.5,0L782.5,754H801l-31.5-53L738,754.1h18.5l-22.8,32.1c6.2,0,12.3,0,18.5,0c-9.4,9-18.8,18.1-28.3,27.1
	c8.5,0,17,0,25.6,0c-10.7,11.6-21.4,23.2-32.1,34.8c10.1,0,20.3,0,30.4,0c-12.3,11.1-24.6,22.1-37,33.2c12.2,0,24.5,0,36.7,0
	c-8.5,6.5-17,12.9-25.5,19.4l-58.5-12.3c-5.2-3.9-10.3-7.7-15.5-11.6c15.5,0,31.1,0,46.6,0c-15.7-13.7-31.3-27.5-47-41.2
	c12.9,0,25.8,0,38.7,0c-13.6-14.4-27.2-28.8-40.7-43.3c10.8,0,21.6,0,32.5,0c-12-11.2-23.9-22.4-35.9-33.7c7.8,0,15.7,0,23.5,0
	l-29-39.8H660L620,653l-40,65.9h23.5l-29,39.8c7.8,0,15.7,0,23.5,0c-12,11.2-23.9,22.4-35.9,33.7c10.8,0,21.6,0,32.5,0
	c-13.6,14.4-27.2,28.8-40.7,43.3c12.9,0,25.8,0,38.7,0c-14.1,12.3-28.2,24.7-42.2,37l-51.4-6c-7.2-4-14.4-8.1-21.5-12.1
	c14.6,0,29.3,0,43.9,0c-14.8-9.8-29.5-19.5-44.3-29.3c12.1,0,24.3,0,36.4,0c-12.8-10.3-25.6-20.5-38.4-30.8c10.2,0,20.4,0,30.6,0
	c-11.3-8-22.6-15.9-33.8-23.9c7.4,0,14.8,0,22.1,0l-27.3-28.3h22.1L451,695.5l-37.7,46.9h22.1L408,770.7c7.4,0,14.8,0,22.1,0
	c-11.3,8-22.6,15.9-33.8,23.9c10.2,0,20.4,0,30.6,0c-12.8,10.3-25.6,20.5-38.4,30.8c12.1,0,24.3,0,36.4,0
	c-14.1,9.3-28.1,18.6-42.2,27.9l-12.2-1.4l-53.6,19.8c-6.4-4.3-12.8-8.5-19.3-12.8c16.6,0,33.2,0,49.8,0c-17.5-14-35-28-52.4-42
	c13.9,0,27.9,0,41.8,0c-15.4-10.9-30.8-21.8-46.2-32.7c10.1,0,20.1,0,30.2,0l-37.3-38.7h30.2l-51.6-64l-51.6,64h30.2l-37.3,38.7
	c10.1,0,20.1,0,30.2,0c-15.4,10.9-30.8,21.8-46.2,32.7c13.9,0,27.9,0,41.8,0c-17.5,14-35,28-52.4,42c16.6,0,33.2,0,49.8,0
	c-20.1,13.3-40.3,26.7-60.4,40c20,0,40,0,60,0c-8.4,4.7-16.8,9.4-25.3,14.2l-40.1-5.3c-15.1-8.5-30.1-16.9-45.2-25.4
	c15.6,0,31.2,0,46.9,0c-15.7-10.4-31.5-20.8-47.2-31.3c13,0,25.9,0,38.9,0c-13.7-10.9-27.3-21.9-41-32.8c10.9,0,21.8,0,32.6,0
	c-12-8.5-24.1-17-36.1-25.5c7.9,0,15.7,0,23.6,0l-29.2-30.2h23.6l-40.3-50l-40.3,50h23.6l-29.2,30.2c7.9,0,15.7,0,23.6,0
	c-12,8.5-24.1,17-36.1,25.5c10.9,0,21.8,0,32.6,0c-13.7,10.9-27.3,21.9-41,32.8c13,0,25.9,0,38.9,0c-15.5,10.4-31.3,20.9-47,31.3
	c15.6,0,31.2,0,46.9,0c-5.7,3.2-11.5,6.4-17.2,9.6l-42.7-5.6V1080h1921V838.9L1873.5,830.5z M1362.6,840.7c-0.7,0.4-1.4,0.8-2.1,1.2
	l-6.1-1.2C1357.2,840.7,1359.9,840.7,1362.6,840.7z M592.2,876.9c-0.3,0.2-0.5,0.4-0.8,0.6l-5.1-0.6
	C588.3,876.9,590.2,876.9,592.2,876.9z M424.5,854.7c-1.7,1-3.4,1.9-5.1,2.9l-24.7-2.9C404.6,854.7,414.6,854.7,424.5,854.7z"/>
</svg>