<svg xmlns="http://www.w3.org/2000/svg" xmlns:xlink="http://www.w3.org/1999/xlink" viewBox="0 0 476.61 259"><defs><style>.cls-1{fill:url(#Безымянный_градиент_27);}.cls-2{fill:#fff;}.cls-3{fill:#383832;}</style><radialGradient id="Безымянный_градиент_27" cx="129.5" cy="129.5" r="129.5" gradientUnits="userSpaceOnUse"><stop offset="0" stop-color="#e6e6e6"/><stop offset="0.05" stop-color="#d6d6d6"/><stop offset="0.2" stop-color="#acacac"/><stop offset="0.35" stop-color="#8a8a8a"/><stop offset="0.51" stop-color="#6f6f6f"/><stop offset="0.67" stop-color="#5c5c5c"/><stop offset="0.83" stop-color="#515151"/><stop offset="1" stop-color="#4d4d4d"/></radialGradient></defs><title>logoРесурс 1</title><g id="Слой_2" data-name="Слой 2"><g id="Слой_1-2" data-name="Слой 1"><circle class="cls-1" cx="129.5" cy="129.5" r="129.5"/><path class="cls-2" d="M38.38,92.15H52.12a3,3,0,0,1,3,2.9l.83,33.72v19.1h.46c.91-6.37,2.5-12.85,3.64-19.1l3.56-15.66a3,3,0,0,1,2.91-2.31h6.57A3,3,0,0,1,76,113.17l3.26,15.6c1,6,2.61,12.51,3.64,19.1h.45v-19.1l.84-33.72a3,3,0,0,1,3-2.9h12.4a3,3,0,0,1,3,3.32l-7.84,68a3,3,0,0,1-3,2.64H76.66a3,3,0,0,1-2.94-2.5l-2.89-17.75a110.74,110.74,0,0,1-1.7-14.44h-.35c-.34,4.44-.9,9.67-1.7,14.44l-2.69,17.72a3,3,0,0,1-2.94,2.53H46.85a3,3,0,0,1-3-2.61l-8.46-68A3,3,0,0,1,38.38,92.15Z"/><path class="cls-2" d="M115,92.15h45.4a2.43,2.43,0,0,1,2.44,2.43v11.51a2.43,2.43,0,0,1-2.44,2.43H134.56a2.43,2.43,0,0,0-2.43,2.44v6.73a2.43,2.43,0,0,0,2.43,2.43h21.29a2.44,2.44,0,0,1,2.44,2.44v11.51a2.43,2.43,0,0,1-2.44,2.43H134.56a2.43,2.43,0,0,0-2.43,2.43v8.33a2.43,2.43,0,0,0,2.43,2.43h27a2.43,2.43,0,0,1,2.43,2.43v11.51a2.43,2.43,0,0,1-2.43,2.44H115a2.43,2.43,0,0,1-2.43-2.44v-69A2.43,2.43,0,0,1,115,92.15Z"/><path class="cls-2" d="M178.53,95.35a3.2,3.2,0,0,1,3.2-3.2h23.19c15.46,0,27.74,3.86,27.74,18.42a16.32,16.32,0,0,1-12.5,15.92V127c10.46,2,15.69,7.5,15.69,17.28,0,15.24-12.74,21.84-28.66,21.84H181.73a3.21,3.21,0,0,1-3.2-3.2Zm25.93,25.91c6.37,0,9.1-3.18,9.1-7.73s-2.73-6.37-9.1-6.37h-3.17a3.2,3.2,0,0,0-3.2,3.2v7.7a3.2,3.2,0,0,0,3.2,3.2Zm1.37,29.8c7.73,0,10.91-3,10.91-8.42s-3.18-7.73-10.91-7.73h-4.54a3.2,3.2,0,0,0-3.2,3.2v9.74a3.21,3.21,0,0,0,3.2,3.21Z"/><path class="cls-3" d="M286.76,92.15h16.13a2.11,2.11,0,0,1,2.05,1.6l5.63,22.51,2.05,9.55h.45l2.05-9.55,5.62-22.51a2.13,2.13,0,0,1,2.06-1.6h16.13a2.11,2.11,0,0,1,2.12,2.11V164a2.12,2.12,0,0,1-2.12,2.12H327A2.12,2.12,0,0,1,324.9,164V148.67c0-8.76,1.59-28.89,2.5-37.53h-.34l-6.26,22L317.38,145a2.12,2.12,0,0,1-2,1.53h-5.48a2.11,2.11,0,0,1-2-1.5l-3.64-11.92-5.69-22h-.45c.91,8.64,2.5,28.77,2.5,37.53V164a2.12,2.12,0,0,1-2.11,2.12H286.76a2.12,2.12,0,0,1-2.12-2.12V94.26A2.11,2.11,0,0,1,286.76,92.15Z"/><path class="cls-3" d="M359.65,92.15h44a3.13,3.13,0,0,1,3.13,3.13v10.11a3.13,3.13,0,0,1-3.13,3.13H379.21a3.14,3.14,0,0,0-3.13,3.14V117a3.13,3.13,0,0,0,3.13,3.13H399.1a3.14,3.14,0,0,1,3.13,3.14v10.11a3.13,3.13,0,0,1-3.13,3.13H379.21a3.13,3.13,0,0,0-3.13,3.13v6.93a3.13,3.13,0,0,0,3.13,3.13h25.58a3.13,3.13,0,0,1,3.13,3.13v10.11a3.14,3.14,0,0,1-3.13,3.14H359.65a3.14,3.14,0,0,1-3.13-3.14V95.28A3.13,3.13,0,0,1,359.65,92.15Z"/><path class="cls-3" d="M424.79,92.15h15.1a2.77,2.77,0,0,1,2.6,1.79l11.72,31.19,6,16.6h.46c-.91-8-2.73-19.1-2.73-28.2V94.92a2.77,2.77,0,0,1,2.77-2.77h13.11a2.77,2.77,0,0,1,2.77,2.77V163.3a2.77,2.77,0,0,1-2.77,2.77h-15.1a2.77,2.77,0,0,1-2.59-1.8L444.43,133l-6-16.49h-.46c.91,8.42,2.73,19.11,2.73,28.21V163.3a2.77,2.77,0,0,1-2.77,2.77H424.79A2.77,2.77,0,0,1,422,163.3V94.92A2.77,2.77,0,0,1,424.79,92.15Z"/></g></g></svg>